# xmcd
#
# Track frame offsets:
#	182
#	17375
#	29940
#	39965
#	56342
#	69010
#	83727
#	101750
#	113807
#	133047
#	143240
#	155685
#	169825
#	184630
#	195637
#
# Disc length: 2745
#
# Revision: 2
# Processed by: cddbd v1.5.1PL0 Copyright (c) Steve Scherf et al.
# Submitted via: FreeRIP 2.11 
# Normalized: r1:TDELIM( - )
#
DISCID=c30ab70f
DTITLE=Various Artist - The World Of Country And Western Songs CD 2
DYEAR=1900
DGENRE=Country
TTITLE0=Atlanta - Sweet Country Music
TTITLE1=Mel Tillis - In The Middle Of The Night
TTITLE2=Faron Young - Hello Walls
TTITLE3=The Osmonds - He Ain't Heavy, He's My Brother
TTITLE4=Charlie Rich - Behind Close Doors
TTITLE5=Jeannie C. Riley - Harper Valley P.T.A.
TTITLE6=Nitty Gritty Dirt Band - Partners, Brothers, Friends
TTITLE7=Lynn Anderson - Rose Garden
TTITLE8=Tanya Tucker - Delta Dawn
TTITLE9=Freddy Fender - Wasted Days and Wasted Nights
TTITLE10=Faron Young - It's Four In The Morning
TTITLE11=George Jones - Who's Gonna Fill Their Shoes
TTITLE12=Tom T. Hall - I Like Beer
TTITLE13=Bellamy Brothers - Let Your Love Flow
TTITLE14=Dave Dudley - Been Around The Horn
EXTD=
EXTT0=
EXTT1=
EXTT2=
EXTT3=
EXTT4=
EXTT5=
EXTT6=
EXTT7=
EXTT8=
EXTT9=
EXTT10=
EXTT11=
EXTT12=
EXTT13=
EXTT14=
PLAYORDER=
